<?xml version="1.0" standalone="no"?>
<!DOCTYPE svg PUBLIC "-//W3C//DTD SVG 20010904//EN"
 "http://www.w3.org/TR/2001/REC-SVG-20010904/DTD/svg10.dtd">
<svg version="1.0" xmlns="http://www.w3.org/2000/svg"
 width="512.000000pt" height="512.000000pt" viewBox="0 0 512.000000 512.000000"
 preserveAspectRatio="xMidYMid meet">

<g transform="translate(0.000000,512.000000) scale(0.100000,-0.100000)"
fill="#000000" stroke="none">
<path d="M2331 5110 c-624 -61 -1180 -329 -1616 -782 -975 -1010 -947 -2618
61 -3599 134 -130 226 -204 374 -303 748 -500 1732 -562 2539 -160 259 129
438 254 639 449 227 218 386 436 522 710 160 324 236 605 262 972 39 542 -114
1118 -418 1573 -407 609 -1041 1014 -1757 1121 -153 23 -464 32 -606 19z m529
-496 c765 -108 1423 -658 1669 -1399 361 -1084 -229 -2263 -1314 -2624 -972
-324 -2039 115 -2504 1029 -155 303 -223 592 -223 940 0 206 16 338 62 516
222 859 968 1486 1850 1554 130 10 321 3 460 -16z"/>
<path d="M1473 4010 c-45 -10 -81 -36 -103 -73 -19 -31 -20 -61 -20 -1378 l0
-1346 23 -33 c12 -19 38 -43 57 -54 35 -21 43 -21 1130 -21 1087 0 1095 0
1130 21 19 11 45 35 57 54 l23 33 0 1347 0 1347 -23 33 c-12 19 -38 43 -57 54
-35 21 -45 21 -1110 23 -591 0 -1090 -2 -1107 -7z m552 -196 c58 -12 84 -13
101 -5 72 33 86 -47 56 -324 -9 -84 -30 -141 -63 -171 -10 -9 -19 -20 -19 -24
0 -4 26 -11 57 -15 71 -9 120 -33 161 -79 45 -51 54 -94 50 -236 l-3 -125
-384 -3 c-289 -2 -387 1 -398 10 -12 10 -14 37 -11 142 3 122 5 134 31 179 38
64 89 96 177 111 l71 12 -30 34 c-34 38 -61 113 -61 167 0 19 -7 48 -16 64
-22 43 -29 120 -14 163 14 42 59 76 102 76 15 0 30 4 33 10 5 8 51 26 76 29 4
1 42 -6 84 -15z m1325 -174 c8 -15 6 -24 -10 -40 -19 -19 -32 -20 -379 -20
-332 0 -360 1 -381 18 -19 16 -21 22 -11 40 l12 22 379 0 c368 0 380 -1 390
-20z m-5 -526 c14 -14 14 -19 2 -38 -14 -21 -20 -21 -373 -24 -198 -1 -369 0
-380 3 -27 6 -37 30 -24 56 10 18 26 19 385 19 331 0 375 -2 390 -16z m-1
-536 c8 -13 8 -23 0 -35 -10 -17 -60 -18 -779 -21 -559 -1 -772 1 -781 9 -17
14 -18 56 -1 62 6 3 358 5 781 4 720 -2 770 -3 780 -19z m3 -534 c12 -19 12
-24 -2 -38 -15 -14 -90 -16 -780 -16 -420 0 -770 3 -779 6 -19 7 -21 45 -4 62
9 9 191 12 781 10 l770 -3 14 -21z m-7 -524 c16 -16 18 -25 10 -40 -11 -20
-22 -20 -793 -18 l-782 3 -3 24 c-8 52 -26 51 790 51 748 0 758 0 778 -20z"/>
<path d="M1897 3730 c-14 -11 -39 -20 -56 -20 -28 0 -52 -22 -40 -35 3 -2 36
0 75 5 61 8 82 6 157 -15 l87 -24 0 39 c0 37 -2 39 -37 45 -21 4 -54 11 -73
16 -54 14 -85 11 -113 -11z"/>
<path d="M1877 3603 c-24 -6 -37 -43 -37 -109 0 -110 52 -169 143 -161 58 5
98 39 116 96 28 93 3 139 -91 165 -55 16 -95 18 -131 9z"/>
<path d="M1920 3232 c0 -39 18 -62 49 -62 34 0 51 18 54 56 2 26 0 27 -50 28
-49 1 -53 -1 -53 -22z"/>
<path d="M1731 3182 c-63 -31 -76 -60 -79 -178 -4 -100 -3 -104 17 -104 18 0
21 6 21 43 0 40 21 77 43 77 19 0 37 -36 37 -76 l0 -45 83 3 82 3 3 92 3 91
-31 19 c-17 10 -38 34 -48 55 -15 34 -21 38 -57 38 -22 0 -55 -8 -74 -18z"/>
<path d="M2087 3164 c-10 -19 -31 -43 -47 -52 l-30 -17 0 -97 0 -98 85 0 85 0
0 50 c0 37 4 52 18 59 33 17 52 -5 52 -59 0 -47 2 -50 25 -50 25 0 25 1 25 87
0 66 -5 96 -20 128 -24 50 -81 85 -137 85 -35 0 -41 -4 -56 -36z"/>
</g>
</svg>
